<?xml version="1.0" encoding="UTF-8"?>
<svg width="233px" height="23px" viewBox="0 0 233 23" version="1.1" xmlns="http://www.w3.org/2000/svg" xmlns:xlink="http://www.w3.org/1999/xlink">
    <!-- Generator: Sketch 53.2 (72643) - https://sketchapp.com -->
    <title>Group 5</title>
    <desc>Created with Sketch.</desc>
    <defs>
        <polygon id="path-1" points="0 0.441807977 20.8756604 0.441807977 20.8756604 21.3619294 0 21.3619294"></polygon>
        <polygon id="path-3" points="0.45801327 0.441807977 21.3332075 0.441807977 21.3332075 21.3672074 0.45801327 21.3672074"></polygon>
        <polygon id="path-5" points="0 22.1141265 32.8511608 22.1141265 32.8511608 0 0 0"></polygon>
        <polygon id="path-7" points="0 8.44395791e-05 17.0285077 8.44395791e-05 17.0285077 22.3764885 0 22.3764885"></polygon>
        <polygon id="path-9" points="8.44395791e-05 8.44395791e-05 17.0285077 8.44395791e-05 17.0285077 17.7518172 8.44395791e-05 17.7518172"></polygon>
        <polygon id="path-11" points="0.0415674656 0.326180962 6.29317298 0.326180962 6.29317298 7.23179697 0.0415674656 7.23179697"></polygon>
        <polygon id="path-13" points="0 0.473264072 10.6250617 0.473264072 10.6250617 9.44694233 0 9.44694233"></polygon>
        <polygon id="path-15" points="0.409365261 0.312532878 7.39406701 0.312532878 7.39406701 9.6015765 0.409365261 9.6015765"></polygon>
        <polygon id="path-17" points="0 0.473168056 5.61973481 0.473168056 5.61973481 5.31670754 0 5.31670754"></polygon>
    </defs>
    <g id="Symbols" stroke="none" stroke-width="1" fill="none" fill-rule="evenodd">
        <g id="Footer" transform="translate(-1071.000000, -15.000000)">
            <g id="Group-5" transform="translate(1071.000000, 15.000000)">
                <g id="Group-7" transform="translate(58.000000, 0.259038)">
                    <g id="Group-31" transform="translate(42.116214, 0.326291)">
                        <g id="Group-3" transform="translate(0.000000, 0.025360)">
                            <mask id="mask-2" fill="white">
                                <use xlink:href="#path-1"></use>
                            </mask>
                            <g id="Clip-2"></g>
                            <path d="M10.3712788,0.441434355 C4.64038484,0.477862497 0,5.15047223 0,10.9019154 C0,16.6762429 4.67634596,21.3619294 10.4385308,21.3619294 C13.1412187,21.3619294 15.6061896,20.3293317 17.4612227,18.6363572 L17.4607556,18.6363572 L17.4621567,18.6363572 C17.8427841,18.2893558 18.1972579,17.9143327 18.5223091,17.5159583 L16.3842573,17.5159583 C16.0984365,17.170358 15.8387693,16.8098128 15.6057226,16.4380589 L19.2933714,16.4380589 C19.5184786,16.0784478 19.7211685,15.7052928 19.9019082,15.3181271 L14.9976528,15.3181271 C14.82999,14.95945 14.6847444,14.5933004 14.5614492,14.2196785 L20.3385788,14.2196785 C20.6874484,13.1772732 20.8756604,12.0610776 20.8756604,10.9019154 C20.8756604,10.1327212 20.7920625,9.38360913 20.6356083,8.66158468 L14.2541451,8.66158468 C14.3340068,8.28983082 14.4334836,7.92274723 14.5516416,7.56313609 L20.3320405,7.56313609 C20.2031409,7.17923952 20.052291,6.80608458 19.881826,6.44320424 L14.9967188,6.44320424 C15.1727881,6.06537903 15.3726759,5.6992295 15.595448,5.34428863 L19.2807617,5.34428863 C19.0355722,4.95198556 18.7642293,4.57742954 18.4714031,4.22529083 L16.4160152,4.22529083 C16.7345279,3.84933373 17.0838645,3.49626097 17.4630908,3.16887472 C15.6085247,1.47496612 13.1435538,0.441901383 10.4389978,0.441901383 C10.4156464,0.441434355 10.3932291,0.441434355 10.3712788,0.441434355" id="Fill-1" fill="#931B1D" mask="url(#mask-2)"></path>
                        </g>
                        <g id="Group-6" transform="translate(13.543796, 0.025360)">
                            <mask id="mask-4" fill="white">
                                <use xlink:href="#path-3"></use>
                            </mask>
                            <g id="Clip-5"></g>
                            <path d="M21.3332072,10.9053247 C21.3346083,16.6815203 16.6638667,21.3653387 10.8974786,21.3672068 C5.13342573,21.3690749 0.45988194,16.6871247 0.45801383,10.909995 L0.45801383,10.9053247 C0.45614572,5.12726097 5.12828843,0.443442573 10.8932754,0.441574463 C16.6573283,0.439706353 21.3318061,5.12212367 21.3332072,10.8997204 L21.3332072,10.9053247 Z" id="Fill-4" fill="#F16622" mask="url(#mask-4)"></path>
                        </g>
                        <path d="M34.8770036,11.0460401 C34.8784046,16.8227027 30.207663,21.5074552 24.441275,21.5083892 C18.6772221,21.5107244 14.0036783,16.82784 14.0018102,11.0516444 L14.0018102,11.0460401 C13.9999421,5.26937742 18.6720848,0.584624974 24.4370717,0.583223892 C30.2011246,0.581355782 34.8756025,5.26330607 34.8770036,11.0404357 L34.8770036,11.0460401 Z" id="Fill-7" fill="#F7981D"></path>
                        <path d="M10.3712788,0.585839246 C4.64038484,0.622734415 0,5.2944101 0,11.0458533 C0,16.8211148 4.67634596,21.5068013 10.4385308,21.5068013 C13.1412187,21.5068013 15.6061896,20.4737366 17.4612227,18.7807621 L17.4607556,18.779828 L17.4621567,18.779828 C17.8427841,18.4332936 18.1972579,18.0592046 18.5223091,17.6598962 L16.3842573,17.6598962 C16.0984365,17.3147629 15.8387693,16.9551517 15.6057226,16.5829308 L19.2933714,16.5829308 C19.5184786,16.2233197 19.7211685,15.8492307 19.9019082,15.462532 L14.9976528,15.462532 C14.82999,15.1029208 14.6847444,14.7367713 14.5614492,14.3640834 L20.3385788,14.3640834 C20.6874484,13.320744 20.8756604,12.2050154 20.8756604,11.0458533 C20.8756604,10.2771261 20.7920625,9.52754699 20.6356083,8.80598957 L14.2541451,8.80598957 C14.3340068,8.43470274 14.4334836,8.06715213 14.5516416,7.70754098 L20.3320405,7.70754098 C20.2031409,7.32364441 20.052291,6.95002244 19.881826,6.5871421 L14.9967188,6.5871421 C15.1727881,6.21071797 15.3726759,5.84316736 15.595448,5.48822649 L19.2807617,5.48822649 C19.0355722,5.09685748 18.7642293,4.72230146 18.4714031,4.36876167 L16.4160152,4.36876167 C16.7345279,3.99373862 17.0838645,3.64019883 17.4630908,3.31234556 C15.6085247,1.61890399 13.1435538,0.585839246 10.4389978,0.585839246 L10.3712788,0.585839246 Z" id="Fill-9" fill="#CB2026"></path>
                        <path d="M14.1914233,13.7091241 L14.3310645,12.7629264 C14.254939,12.7629264 14.1428525,12.7951513 14.0443097,12.7951513 C13.6576109,12.7951513 13.6146444,12.5896592 13.6393969,12.4369413 L13.9518382,10.5053157 L14.5398258,10.5053157 L14.6818021,9.45730606 L14.1279076,9.45730606 L14.2404612,8.80673681 L13.1294029,8.80673681 C13.1051174,8.83148927 12.4727623,12.4696332 12.4727623,12.9114412 C12.4727623,13.5676147 12.8393788,13.8595069 13.3582463,13.8553037 C13.7636262,13.8520345 14.0802708,13.7394808 14.1914233,13.7091241" id="Fill-11" fill="#FFFFFF"></path>
                        <path d="M16.4927945,10.3313947 C17.1200124,10.3313947 17.0041896,11.0380072 17.0041896,11.0949846 L15.7703017,11.0949846 C15.769836,11.0221283 15.8865929,10.3313947 16.4927945,10.3313947 M14.5438889,11.9043431 C14.5438889,13.4782257 15.5797558,13.8527817 16.4633718,13.8527817 C17.2788017,13.8527817 17.6370118,13.6692399 17.6370118,13.6692399 L17.8331633,12.5955438 C17.8331633,12.5955438 17.2129509,12.870623 16.6529849,12.870623 C15.4597298,12.870623 15.6684911,11.9781335 15.6684911,11.9781335 L17.9275029,11.9781335 C17.9275029,11.9781335 18.0732155,11.256109 18.0732155,10.9623488 C18.0732155,10.2286486 17.708,9.33429103 16.4881243,9.33429103 C15.3705275,9.33475806 14.5438889,10.540623 14.5438889,11.9043431" id="Fill-13" fill="#FFFFFF"></path>
                        <path d="M23.5296841,13.7091241 L23.7291048,12.4939186 C23.7291048,12.4939186 23.1836167,12.7694648 22.8095277,12.7694648 C22.0211854,12.7694648 21.7050078,12.1646642 21.7050078,11.5178312 C21.7050078,10.2022149 22.3831317,9.4783223 23.1387821,9.4783223 C23.7048194,9.4783223 24.1597041,9.79776908 24.1597041,9.79776908 L24.3404437,8.61899177 C24.3404437,8.61899177 23.6669902,8.34484665 23.0897442,8.34484665 C21.8063528,8.34484665 20.5575213,9.45870714 20.5575213,11.5556604 C20.5575213,12.943199 21.231909,13.861375 22.558267,13.861375 C22.93329,13.861842 23.5296841,13.7091241 23.5296841,13.7091241" id="Fill-15" fill="#FFFFFF"></path>
                        <path d="M8.31757225,11.8482998 C8.33858848,12.0355779 8.19988133,12.9140565 7.53063098,12.9140565 C7.18549769,12.9140565 7.09582841,12.649719 7.09582841,12.4932648 C7.09582841,12.1887629 7.26068911,11.8226133 8.07565203,11.8226133 C8.26479815,11.8226133 8.28534735,11.8431625 8.31757225,11.8482998 M8.07892122,9.35157105 C7.3167324,9.35157105 6.73248105,9.59676046 6.73248105,9.59676046 L6.5718236,10.5560349 C6.5718236,10.5560349 7.05426297,10.3598833 7.78235878,10.3598833 C8.19661214,10.3598833 8.49924593,10.4065861 8.49924593,10.7442469 C8.49924593,10.9483379 8.46235076,11.0239964 8.46235076,11.0239964 C8.46235076,11.0239964 8.13589857,10.9964418 7.98458167,10.9964418 C7.02390619,10.9964418 6.01372579,11.4074259 6.01372579,12.6478509 C6.01372579,13.6239382 6.67597073,13.8481114 7.08648787,13.8481114 C7.871094,13.8481114 8.20828782,13.3385845 8.22696892,13.3367164 L8.19054078,13.7626454 L9.16849628,13.7626454 L9.60563398,10.694275 C9.60563398,9.39313649 8.47215834,9.35157105 8.07892122,9.35157105" id="Fill-17" fill="#FFFFFF"></path>
                        <path d="M10.6453772,13.8249469 C10.8952369,13.8249469 12.3266761,13.8893967 12.3266761,12.4093866 C12.3266761,11.0255843 11.0021862,11.2987953 11.0021862,10.7425656 C11.0021862,10.4674865 11.2184199,10.3787512 11.6121241,10.3787512 C11.7690453,10.3787512 12.3719777,10.4291902 12.3719777,10.4291902 L12.512553,9.44516335 C12.512553,9.44516335 12.1225851,9.35876327 11.4878948,9.35876327 C10.6645253,9.35876327 9.83088133,9.68661655 9.83088133,10.8121527 C9.83088133,12.0880717 11.2221561,11.9591722 11.2221561,12.4962537 C11.2221561,12.8549308 10.8331223,12.8843536 10.5332906,12.8843536 C10.0153572,12.8843536 9.54879674,12.7059491 9.5464616,12.7143556 L9.3984139,13.6871738 C9.42456744,13.6965143 9.71272338,13.8249469 10.6453772,13.8249469" id="Fill-19" fill="#FFFFFF"></path>
                        <path d="M32.2194305,11.3762752 C32.2194305,11.9642628 31.9284724,12.7488689 31.326007,12.7488689 C30.9257644,12.7488689 30.7389535,12.4126091 30.7389535,11.8848681 C30.7389535,11.0218014 31.1256522,10.4510938 31.6132289,10.4510938 C32.0139384,10.4510938 32.2194305,10.727107 32.2194305,11.3762752 L32.2194305,11.3762752 Z M32.7350288,8.46856223 L32.4959108,9.95931388 C32.4959108,9.95931388 32.0774542,9.38113388 31.4231487,9.38113388 C30.4040948,9.38113388 29.5555059,10.6108172 29.5555059,12.0249763 C29.5555059,12.938015 30.0080555,13.8309715 30.9337039,13.8309715 C31.5996851,13.8309715 31.9681697,13.3662792 31.9681697,13.3662792 L31.9195989,13.7627855 L33.0007674,13.7627855 L33.8502904,8.46669412 L32.7350288,8.46856223 Z" id="Fill-21" fill="#FFFFFF"></path>
                        <polygon id="Fill-23" fill="#FFFFFF" points="2.06103888 13.7675025 2.7382287 9.76881338 2.83677149 13.7675025 3.60316356 13.7675025 5.03133353 9.76881338 4.39851132 13.7675025 5.53572318 13.7675025 6.41280075 8.46533974 4.65304129 8.46533974 3.55739486 11.717719 3.50041751 8.46533974 1.87889817 8.46533974 0.990144918 13.7675025"></polygon>
                        <path d="M19.1841337,13.7747881 C19.5077837,11.9323648 19.5675632,10.4350748 20.3404937,10.7078188 C20.4754646,9.99466786 20.6057653,9.71865463 20.7524119,9.41695489 C20.7524119,9.41695489 20.6837588,9.40201001 20.5380463,9.40201001 C20.0415961,9.40201001 19.6726444,10.0834031 19.6726444,10.0834031 L19.7707202,9.45805331 L18.7357873,9.45805331 L18.0431856,13.7747881 L19.1841337,13.7747881 Z" id="Fill-25" fill="#FFFFFF"></path>
                        <path d="M26.3327829,11.8482998 C26.3537991,12.0355779 26.215559,12.9140565 25.5453746,12.9140565 C25.2007083,12.9140565 25.1115061,12.649719 25.1115061,12.4932648 C25.1115061,12.1887629 25.2768338,11.8226133 26.0899286,11.8226133 C26.2804758,11.8226133 26.300091,11.8431625 26.3327829,11.8482998 M26.0936648,9.35157105 C25.331476,9.35157105 24.7476917,9.59676046 24.7476917,9.59676046 L24.5875013,10.5560349 C24.5875013,10.5560349 25.0690066,10.3598833 25.7975694,10.3598833 C26.2113558,10.3598833 26.5144566,10.4065861 26.5144566,10.7442469 C26.5144566,10.9483379 26.4775614,11.0239964 26.4775614,11.0239964 C26.4775614,11.0239964 26.1511092,10.9964418 25.9988583,10.9964418 C25.0377157,10.9964418 24.0289364,11.4074259 24.0289364,12.6478509 C24.0289364,13.6239382 24.6911814,13.8481114 25.1016985,13.8481114 C25.8858376,13.8481114 26.2234985,13.3385845 26.2412455,13.3367164 L26.2052844,13.7626454 L27.1837069,13.7626454 L27.6203776,10.694275 C27.6208446,9.39313649 26.488303,9.35157105 26.0936648,9.35157105" id="Fill-27" fill="#FFFFFF"></path>
                        <path d="M28.5142215,13.7747881 C28.8378715,11.9323648 28.897651,10.4350748 29.6705814,10.7078188 C29.8055524,9.99466786 29.935853,9.71865463 30.0834337,9.41695489 C30.0834337,9.41695489 30.0133796,9.40201001 29.8686011,9.40201001 C29.3707498,9.40201001 29.0027322,10.0834031 29.0027322,10.0834031 L29.101742,9.45805331 L28.0658751,9.45805331 L27.3732734,13.7747881 L28.5142215,13.7747881 Z" id="Fill-29" fill="#FFFFFF"></path>
                    </g>
                    <g id="Group-17" transform="translate(0.430317, 0.326291)">
                        <polygon id="Fill-1" fill="#005A9B" points="0 -4.17247669e-05 0 0.558235657 0 21.5562246 0 22.1140848 0.558277382 22.1140848 32.2933006 22.1140848 32.851578 22.1140848 32.851578 -4.17247669e-05"></polygon>
                        <polygon id="Fill-2" fill="#FFFFFF" points="0.557860134 21.5558491 32.2928834 21.5558491 32.2928834 0.558277382 0.557860134 0.558277382"></polygon>
                        <polygon id="Fill-3" fill="#005A9B" points="12.0280403 14.4672284 14.0888265 7.67151565 15.9280543 7.67151565 13.8668508 14.4672284"></polygon>
                        <g id="Group-16">
                            <path d="M11.2057703,7.67351844 L9.55180055,10.5537791 C9.1303804,11.3085801 8.88420428,11.6895273 8.76570594,12.1668586 L8.74067108,12.1668586 C8.77029566,11.5618495 8.68559438,10.8199831 8.67766668,10.4006492 L8.4949122,7.67351844 L5.39935174,7.67351844 L5.36764092,7.85585567 C6.16291498,7.85585567 6.63440484,8.25599618 6.76416887,9.07296712 L7.36792624,14.467145 L9.2730791,14.467145 L13.1251096,7.67351844 L11.2057703,7.67351844 Z" id="Fill-4" fill="#005A9B"></path>
                            <path d="M25.2958486,10.4585632 C25.2754034,9.95661424 25.2582963,9.27483154 25.2925106,8.8621736 L25.2653895,8.8621736 C25.1535671,9.19930972 24.6724806,10.2123871 24.4613532,10.7105808 L23.7770671,12.2005722 L25.3893121,12.2005722 L25.2958486,10.4585632 Z M25.5065587,14.4670615 L25.4560717,13.4569049 L23.1595405,13.4548187 L22.6901369,14.4670615 L20.6936068,14.4670615 L24.3136476,7.68470068 L26.7645604,7.68470068 L27.3774972,14.4670615 L25.5065587,14.4670615 Z" id="Fill-6" fill="#005A9B"></path>
                            <path d="M17.858534,14.6603724 C16.5600593,14.6603724 15.6984429,14.2485489 15.0834198,13.881371 L15.9596399,12.543675 C16.5116586,12.8524382 16.9455961,13.2087677 17.9432353,13.2087677 C18.2636815,13.2087677 18.5728621,13.1253182 18.7485233,12.8215619 C19.0042961,12.3792794 18.6892742,12.1418655 17.9711909,11.7346317 L17.6161132,11.504311 C16.5512971,10.7762138 16.0906557,10.0852517 16.5917701,8.87898868 C16.9126336,8.10708049 17.7588119,7.52251651 19.1545053,7.52251651 C20.1170957,7.52251651 21.0196024,7.93851243 21.5453345,8.34532891 L20.5385158,9.52655706 C20.0248839,9.11139563 19.6001258,8.90152005 19.1131978,8.90152005 C18.7251575,8.90152005 18.4301634,9.05131197 18.3283549,9.25325984 C18.1368382,9.63253797 18.3901076,9.89123153 18.950054,10.2383816 L19.3718913,10.5070891 C20.6649419,11.322391 20.9728707,12.1777488 20.6486692,12.9771953 C20.0912263,14.3532781 19.0001237,14.6603724 17.858534,14.6603724" id="Fill-8" fill="#005A9B"></path>
                            <path d="M28.011213,7.97994513 C27.8213653,7.97994513 27.6740768,8.1284853 27.6740768,8.34169886 C27.6740768,8.54114324 27.8030064,8.70345258 28.011213,8.70345258 C28.1985572,8.70345258 28.3462628,8.55616416 28.3462628,8.34169886 C28.3462628,8.1284853 28.1985572,7.97994513 28.011213,7.97994513 L28.011213,7.97994513 Z M28.011213,8.77980891 C27.7596126,8.77980891 27.5801961,8.59121296 27.5801961,8.34169886 C27.5801961,8.07799833 27.7792233,7.9035888 28.011213,7.9035888 C28.2406992,7.9035888 28.4397263,8.07799833 28.4397263,8.34169886 C28.4397263,8.60539938 28.2406992,8.77980891 28.011213,8.77980891 L28.011213,8.77980891 Z M28.0137164,8.31749849 C28.0733829,8.31749849 28.1259561,8.31123978 28.1259561,8.24114217 C28.1259561,8.18231025 28.0687931,8.17563428 28.0208097,8.17563428 L27.9244254,8.17563428 L27.9244254,8.31749849 L28.0137164,8.31749849 Z M27.9244254,8.5924647 L27.8451484,8.5924647 L27.8451484,8.10762291 L28.0287374,8.10762291 C28.145984,8.10762291 28.2056504,8.14851318 28.2056504,8.24698363 C28.2056504,8.33502289 28.1518254,8.37090619 28.0792243,8.37925115 L28.2148298,8.5924647 L28.1247043,8.5924647 L27.99953,8.38550986 L27.9244254,8.38550986 L27.9244254,8.5924647 Z" id="Fill-10" fill="#005A9B"></path>
                            <mask id="mask-6" fill="white">
                                <use xlink:href="#path-5"></use>
                            </mask>
                            <g id="Clip-13"></g>
                            <polygon id="Fill-12" fill="#FAA929" mask="url(#mask-6)" points="1.39527621 20.6070279 31.5117957 20.6070279 31.5117957 16.5776672 1.39527621 16.5776672"></polygon>
                            <polygon id="Fill-14" fill="#005A9B" mask="url(#mask-6)" points="1.33978227 5.59237051 31.4558845 5.59237051 31.4558845 1.56259252 1.33978227 1.56259252"></polygon>
                            <path d="M30.8545055,19.7076923 C30.6646578,19.7076923 30.5173694,19.8566497 30.5173694,20.0698632 C30.5173694,20.2688904 30.6462989,20.431617 30.8545055,20.431617 C31.0418497,20.431617 31.1895554,20.2843285 31.1895554,20.0698632 C31.1895554,19.8566497 31.0418497,19.7076923 30.8545055,19.7076923 L30.8545055,19.7076923 Z M30.8545055,20.5079733 C30.6029051,20.5079733 30.4234886,20.3193774 30.4234886,20.0698632 C30.4234886,19.8061627 30.6225158,19.6317532 30.8545055,19.6317532 C31.0839917,19.6317532 31.2830188,19.8061627 31.2830188,20.0698632 C31.2830188,20.3331465 31.0839917,20.5079733 30.8545055,20.5079733 L30.8545055,20.5079733 Z M30.857009,20.0452456 C30.9166754,20.0452456 30.9692486,20.0394042 30.9692486,19.9688893 C30.9692486,19.9104746 30.9120857,19.9033814 30.8641022,19.9033814 L30.767718,19.9033814 L30.767718,20.0452456 L30.857009,20.0452456 Z M30.767718,20.3206291 L30.6884409,20.3206291 L30.6884409,19.8357873 L30.8720299,19.8357873 C30.9892765,19.8357873 31.0489429,19.8762603 31.0489429,19.975148 C31.0489429,20.06277 30.9951179,20.0990706 30.9225169,20.1074155 L31.0581223,20.3206291 L30.9679968,20.3206291 L30.8428225,20.113257 L30.767718,20.113257 L30.767718,20.3206291 Z" id="Fill-15" fill="#005A9B" mask="url(#mask-6)"></path>
                        </g>
                    </g>
                    <g id="Group-18" transform="translate(85.998212, 0.326291)">
                        <g id="Group-3">
                            <mask id="mask-8" fill="white">
                                <use xlink:href="#path-7"></use>
                            </mask>
                            <g id="Clip-2"></g>
                            <path d="M14.9926695,22.3765729 L2.03626045,22.3765729 C0.911525257,22.3765729 0,21.4650477 0,20.3407347 L0,2.03592269 C0,0.911609696 0.911525257,8.44395791e-05 2.03626045,8.44395791e-05 L14.9926695,8.44395791e-05 C16.1174047,8.44395791e-05 17.0285077,0.911609696 17.0285077,2.03592269 L17.0285077,20.3407347 C17.0285077,21.4650477 16.1174047,22.3765729 14.9926695,22.3765729" id="Fill-1" fill="#8E4C98" mask="url(#mask-8)"></path>
                        </g>
                        <polygon id="Fill-4" fill="#FCEDFE" points="8.80193951 19.6974317 9.23173697 17.7519438 8.72467729 17.7519438 8.20579608 20.0875426 9.97480526 20.0875426 10.0605114 19.6974317"></polygon>
                        <path d="M4.5102979,18.6864789 C4.32115324,18.6079501 4.19913805,18.5475758 4.14383013,18.5024006 C4.0885222,18.4589142 4.06192373,18.4036063 4.06192373,18.3364768 C4.06192373,18.2655476 4.09147759,18.2051733 4.15185189,18.1587315 C4.21180399,18.1156673 4.31186489,18.0932908 4.45287899,18.0932908 C4.59558187,18.0932908 4.70366454,18.1224225 4.77712697,18.1823746 C4.8501672,18.2414823 4.89280919,18.3271885 4.90505293,18.4382265 L5.3935359,18.4166944 C5.37749238,18.2039067 5.29009741,18.0324943 5.13050661,17.9041462 C4.9717602,17.775798 4.74672872,17.7112017 4.45625657,17.7112017 C4.1700064,17.7112017 3.95257448,17.775798 3.80184983,17.9054128 C3.65112518,18.0358719 3.57512956,18.1979959 3.57512956,18.3951623 C3.57512956,18.507467 3.60088363,18.6054169 3.65112518,18.6894342 C3.70178893,18.7726072 3.77145158,18.8401589 3.85926874,18.8929336 C3.9475081,18.9457084 4.0881,19.011149 4.28020005,19.0901 C4.47145569,19.1694733 4.58924891,19.2252034 4.63189089,19.2602458 C4.69310959,19.3079542 4.72308564,19.3662175 4.72308564,19.4354579 C4.72308564,19.5152533 4.68551003,19.5836494 4.61162539,19.6393795 C4.53731856,19.6955318 4.41656997,19.7238191 4.25064619,19.7238191 C4.04967999,19.7238191 3.91288788,19.6811771 3.83815885,19.5992707 C3.79298367,19.5481848 3.76596301,19.4498127 3.75963004,19.305421 L3.27452466,19.3290641 C3.27030268,19.4852773 3.30027873,19.6229138 3.36445281,19.7440846 C3.42904909,19.8631444 3.53839834,19.9577167 3.69376717,20.0252684 C3.85040259,20.0915535 4.03363647,20.1249071 4.24642421,20.1249071 C4.55505088,20.1249071 4.79570368,20.0522891 4.96880481,19.9057864 C5.14148375,19.7605503 5.22761212,19.584916 5.22761212,19.378039 C5.22761212,19.2104264 5.16934881,19.0753231 5.05366659,18.9676627 C4.97598218,18.8954668 4.79528148,18.8013167 4.5102979,18.6864789" id="Fill-6" fill="#FCEDFE"></path>
                        <path d="M7.43988688,19.2097087 C7.35755829,19.3836542 7.2536976,19.513269 7.12619384,19.5989752 C6.99953447,19.6838369 6.86738653,19.7277455 6.73059441,19.7277455 C6.56087086,19.7277455 6.42534533,19.6728598 6.32190685,19.5647771 C6.21846836,19.4554279 6.16611583,19.3215912 6.16611583,19.1615782 C6.16611583,18.9015042 6.24464463,18.6604292 6.40001346,18.4417307 C6.55664888,18.2230322 6.75888167,18.113683 7.00755623,18.113683 C7.16925803,18.113683 7.30267256,18.1660355 7.40737764,18.2707406 C7.51208272,18.3754457 7.56401306,18.518993 7.56401306,18.702649 C7.56401306,18.8681506 7.52263766,19.0366076 7.43988688,19.2097087 M7.78862234,17.9811128 C7.60032208,17.8012565 7.35333631,17.7117506 7.04682064,17.7092174 C6.81925597,17.7092174 6.61533439,17.7543926 6.43674468,17.8413653 C6.25773277,17.9291825 6.10911911,18.0486645 5.9913259,18.1998113 C5.87395488,18.3509582 5.78613772,18.5295479 5.72871881,18.7334695 C5.68565462,18.8858829 5.66327813,19.0319634 5.66327813,19.1695999 C5.66327813,19.319058 5.69578737,19.4655606 5.76080585,19.6120633 C5.82582432,19.7589882 5.93686237,19.8814256 6.09349779,19.9793755 C6.24971101,20.0794364 6.44349984,20.1284113 6.67401989,20.1284113 C6.93916017,20.1284113 7.17812418,20.065926 7.38795654,19.9422221 C7.59821109,19.8176737 7.76540145,19.6407728 7.88826104,19.4094083 C8.00985404,19.1788883 8.07149493,18.9403465 8.07149493,18.6937829 C8.07149493,18.3982444 7.977767,18.1613913 7.78862234,17.9811128" id="Fill-8" fill="#FCEDFE"></path>
                        <path d="M11.9140024,19.2100887 C11.8312516,19.3840342 11.7265466,19.5140712 11.6003094,19.5993551 C11.4732278,19.6842169 11.3406577,19.7281255 11.2042878,19.7281255 C11.034142,19.7281255 10.8977721,19.6732398 10.7947558,19.5651571 C10.6908951,19.4558079 10.6398092,19.3223933 10.6398092,19.1619581 C10.6398092,18.9018842 10.718338,18.6608092 10.874129,18.4421107 C11.0303422,18.2234122 11.2321528,18.114063 11.4812496,18.114063 C11.6429514,18.114063 11.7755215,18.1659933 11.881071,18.2706984 C11.9857761,18.3754035 12.0377064,18.5189507 12.0377064,18.7026068 C12.0377064,18.8681084 11.9959088,19.0365654 11.9140024,19.2100887 M12.2623157,17.9810706 C12.0735932,17.8012143 11.8274518,17.7117084 11.5209362,17.7091752 C11.2921049,17.7091752 11.0886055,17.7543503 10.9095936,17.8413231 C10.7310039,17.9291403 10.5823903,18.0486223 10.4650192,18.1997691 C10.347226,18.350916 10.2598311,18.5295057 10.2024121,18.7334273 C10.1585036,18.8858407 10.1373937,19.0319212 10.1373937,19.1695577 C10.1373937,19.3190157 10.1694807,19.4655184 10.2349214,19.6120211 C10.2995177,19.758946 10.4105557,19.8813833 10.5659245,19.9793333 C10.7234044,20.0793942 10.9163488,20.1283691 11.147291,20.1283691 C11.4120091,20.1283691 11.6501287,20.0658838 11.8612277,19.9421798 C12.0714822,19.8176315 12.237406,19.6407305 12.36111,19.4093661 C12.4839696,19.178846 12.5456105,18.9403042 12.5456105,18.6937407 C12.5456105,18.3982021 12.4501937,18.1613491 12.2623157,17.9810706" id="Fill-10" fill="#FCEDFE"></path>
                        <path d="M10.4616839,8.18717715 C10.0597515,8.44387347 9.70426085,8.67101594 9.35721418,8.89309203 C9.93900288,10.3935834 9.71777118,11.4613218 8.68380854,12.1896132 C8.26161064,12.4885293 7.77566086,12.6270102 7.26395701,12.6101223 C6.44067112,12.5822572 5.79555273,12.189191 5.30453658,11.5229627 C4.93806881,11.7707929 4.59735511,12.0008907 4.23299832,12.2478765 C5.03686311,13.3878108 6.10417939,13.9784657 7.44930189,13.9320239 C8.9329053,13.8826268 10.0563739,13.1653125 10.6993813,11.8138571 C11.28117,10.5953939 11.1781537,9.38790797 10.4616839,8.18717715" id="Fill-12" fill="#FBFEFC"></path>
                        <path d="M8.48322232,15.8304368 C4.80165667,15.7671071 1.92480021,12.8197436 1.99277407,9.17828671 C2.05948133,5.58580482 5.04273167,2.67770571 8.58328322,2.75539013 C12.2348728,2.83687432 15.1041297,5.77663827 15.0412222,9.37545313 C14.9774703,12.9814454 12.0208185,15.8916555 8.48322232,15.8304368 M8.51784254,2.24833045 C4.59731289,2.27366233 1.45362735,5.42705841 1.4650267,9.32394499 C1.47558165,13.1836781 4.67330851,16.3624061 8.51530936,16.3324301 C12.47637,16.3020318 15.59979,13.1401918 15.563481,9.19517463 C15.5305496,5.37343928 12.3374669,2.22553177 8.51784254,2.24833045" id="Fill-14" fill="#F8F5FC"></path>
                        <path d="M7.77549198,5.56330167 C5.85871354,6.85396064 5.73120977,9.31410778 6.75503967,10.6782292 C7.10208634,10.4586863 7.44997741,10.2378768 7.81517859,10.0060901 C6.99695906,8.506021 7.68260845,7.2626482 8.47591829,6.70745797 C9.51199193,5.98043319 10.5885966,6.17759961 11.8725004,7.35848712 C12.2199692,7.1216341 12.5741933,6.8818257 12.9241953,6.64328389 C11.9476516,4.92620505 9.47188313,4.42167856 7.77549198,5.56330167" id="Fill-16" fill="#24211E"></path>
                    </g>
                    <g id="Group-22" transform="translate(111.595794, 0.326291)">
                        <g id="Group-3">
                            <mask id="mask-10" fill="white">
                                <use xlink:href="#path-9"></use>
                            </mask>
                            <g id="Clip-2"></g>
                            <path d="M14.9927539,8.44395791e-05 L2.03592269,8.44395791e-05 C0.911609696,8.44395791e-05 8.44395791e-05,0.911609696 8.44395791e-05,2.03592269 L8.44395791e-05,17.7518172 L17.0285922,17.7518172 L17.0285922,2.03592269 C17.0285922,0.911609696 16.1170669,8.44395791e-05 14.9927539,8.44395791e-05" id="Fill-1" fill="#409267" mask="url(#mask-10)"></path>
                        </g>
                        <path d="M0,20.340608 C0,21.464921 0.911525257,22.3764462 2.03583825,22.3764462 L14.9926695,22.3764462 C16.1169825,22.3764462 17.0285077,21.464921 17.0285077,20.340608 L17.0285077,17.7516905 L0,17.7516905 L0,20.340608 Z" id="Fill-4" fill="#000000"></path>
                        <path d="M11.6642301,7.30731674 C11.5949897,7.17854638 11.5147721,7.05610899 11.4358211,6.92438325 C10.848966,7.31069432 10.2870206,7.68222847 9.72296422,8.05249602 C10.9144067,9.99756173 10.1143417,12.1203727 8.83423765,13.0758066 C8.15745442,13.5803331 7.40298678,13.8678498 6.56365736,13.8526507 C5.24935532,13.8294298 4.22299223,13.238775 3.47950174,12.14866 C2.94964338,12.4973955 2.43836173,12.8427533 1.91990271,13.1758675 C1.79830972,13.2548185 1.8008429,13.3126596 1.87768292,13.4194757 C3.23842674,15.282635 5.0720322,16.114787 7.36245578,15.8665347 C8.63791563,15.728476 9.73816334,15.1601976 10.6488442,14.2550053 C11.6891398,13.2197761 12.2557294,11.9561378 12.3617011,10.4978662 C12.4444519,9.37102005 12.2050656,8.30370377 11.6642301,7.30731674" id="Fill-6" fill="#F8F5F7"></path>
                        <path d="M15.1496426,4.33419916 C13.7897432,2.46935105 11.9561378,1.63593241 9.66613638,1.88502916 C8.38983214,2.02308788 7.29000662,2.59178844 6.37932576,3.49782513 C5.34029674,4.53220997 4.77328497,5.79584827 4.6656245,7.2541198 C4.58414031,8.38181038 4.82352652,9.44870446 5.36309543,10.4455137 C5.43318028,10.5738619 5.51170909,10.6954548 5.59066009,10.8284472 C6.17751517,10.4421361 6.74072716,10.070602 7.30351696,9.69991221 C6.1120745,7.7552687 6.91213951,5.63161329 8.19308792,4.67702385 C8.86987115,4.17165297 9.6230722,3.8849806 10.4640904,3.90017972 C11.7771259,3.9238228 12.8034889,4.51574425 13.548246,5.60501482 C14.0776822,5.25501277 14.5889638,4.91049928 15.1082673,4.57738514 C15.2307046,4.49801194 15.2281715,4.43974863 15.1496426,4.33419916" id="Fill-8" fill="#000000"></path>
                        <path d="M2.58532881,19.3877918 C2.86693481,19.2877309 3.15782916,19.2716874 3.42170284,19.4219898 C3.48461033,19.4574544 3.60873651,19.537672 3.60873651,19.537672 C3.60873651,19.537672 3.70204225,19.4561878 3.75988336,19.4059463 C3.78859282,19.3810366 3.82279085,19.3616155 3.88780932,19.3160181 C3.77043831,19.2429779 3.67797697,19.1669823 3.57284969,19.1226515 C3.28026655,18.9981031 3.00034935,18.9900814 2.7077662,19.0420117 C2.47302417,19.0838093 2.26023643,19.1783816 2.105712,19.3725927 C1.87139217,19.6651758 1.97778604,20.0299548 2.33243227,20.1473258 C2.4080057,20.1705467 2.48611231,20.1878568 2.56464112,20.1971452 C2.74280863,20.2212104 2.92097614,20.233032 3.09829926,20.2613192 C3.20553752,20.2782071 3.32164194,20.3043834 3.33430788,20.4470863 C3.34739602,20.585145 3.28913271,20.6894279 3.16120674,20.7476912 C3.11096519,20.7696455 3.05776826,20.7840002 3.00457132,20.7937108 C2.62332662,20.8566183 2.29738985,20.7519132 2.0271832,20.4643964 C1.93429966,20.5184377 1.86421481,20.5750123 1.71855653,20.6602962 C1.86168162,20.7802004 1.9452768,20.8992603 2.07700255,20.9756781 C2.33243227,21.1251361 2.62290443,21.1622895 2.91379878,21.1399131 C3.21355928,21.1175366 3.47743297,21.0115649 3.64293454,20.7400916 C3.8527669,20.3968448 3.70753082,20.0316436 3.31953095,19.9222943 C3.27646677,19.9092062 3.23171379,19.9037176 3.18822741,19.8973846 C2.97121769,19.8665642 2.75294138,19.8433433 2.53846485,19.8057677 C2.37296327,19.776636 2.32145513,19.6427993 2.42151603,19.5093848 C2.46162483,19.4561878 2.52326572,19.4084795 2.58532881,19.3877918" id="Fill-10" fill="#E3E3E3"></path>
                        <path d="M6.91923243,19.0888757 C6.91923243,19.0888757 6.89305616,19.1327843 6.83817044,19.2501553 C6.67984623,19.5984685 6.50970047,19.9412932 6.34251011,20.2862289 C6.32097801,20.3314041 6.29269075,20.3727795 6.25089316,20.4411755 C6.16223161,19.9691583 5.99588563,19.0762097 5.99588563,19.0762097 L5.60450819,19.0745209 L5.50782487,19.2421335 C5.42338529,19.4051019 5.31910241,19.5575153 5.22284129,19.7149952 C5.07844961,19.9497372 4.93448012,20.1844792 4.78966625,20.418799 C4.77995569,20.4166881 4.77066734,20.4137327 4.76095679,20.4111995 C4.71747041,19.9721137 4.67525062,19.5342945 4.63218643,19.0952086 L4.23616481,19.0952086 C4.30456086,19.7525708 4.37211253,20.4031777 4.44135298,21.0664506 L4.88888275,21.0664506 C4.97501112,20.8984159 5.13713511,20.5969666 5.23255184,20.4344204 C5.3811655,20.1836348 5.53062355,19.9324271 5.69908051,19.6482879 C5.78309789,20.1439482 5.86078231,20.6003441 5.93931112,21.0664506 L6.36784198,21.0664506 L6.43412705,20.9359915 C6.72122162,20.3520918 7.31187647,19.191892 7.31187647,19.191892 L7.36211802,19.0888757 L6.91923243,19.0888757 Z" id="Fill-12" fill="#E3E3E3"></path>
                        <path d="M14.8711187,19.1000217 C14.8297433,19.2845222 14.7208162,19.7637168 14.7208162,19.7637168 L13.6328123,19.7637168 C13.679254,19.5310857 13.7202072,19.3170314 13.7632714,19.0983329 L13.3537395,19.0983329 C13.2169473,19.7518952 13.0801552,20.4016578 12.9395633,21.0695749 L13.3490953,21.0695749 C13.3490953,21.0695749 13.5010865,20.3674598 13.5623052,20.092609 L14.6587532,20.092609 C14.5903571,20.4206567 14.5244942,20.7381495 14.4552538,21.0636641 L14.8956062,21.0636641 C15.0340871,20.4088352 15.1717236,19.7590726 15.3102045,19.1000217 L14.8711187,19.1000217 Z" id="Fill-14" fill="#E3E3E3"></path>
                        <path d="M11.3236853,20.7273413 C11.2210912,20.6766775 11.1184971,20.5778832 11.0699444,20.4744447 C10.860112,20.0429585 11.1653611,19.4307715 11.6314676,19.3281774 C11.9903358,19.2492264 12.2884075,19.3454876 12.4965511,19.6688911 L12.8123551,19.5215441 C12.6835847,19.333666 12.635032,19.2475376 12.5087948,19.1635203 C11.9510714,18.7902973 10.751185,18.9494659 10.6325474,20.0412697 C10.5704843,20.6019485 10.8124037,20.9899484 11.3110194,21.1060528 C11.4541445,21.1398286 11.6065579,21.1499614 11.7547494,21.1423618 C12.1397939,21.1258961 12.4467317,20.9620833 12.6590973,20.6125034 C12.5349711,20.5593065 12.4243552,20.5111759 12.3175392,20.4651564 C12.0283336,20.7957373 11.6618658,20.8991758 11.3236853,20.7273413" id="Fill-16" fill="#E3E3E3"></path>
                        <path d="M8.63111824,19.1000217 C8.60874175,19.2047268 8.58889845,19.3009879 8.56525537,19.4145591 L9.33323334,19.4145591 C9.21712892,19.9718604 9.10440208,20.5131181 8.98829766,21.0670417 C9.09258054,21.0670417 9.17744232,21.0611309 9.2601931,21.0687305 C9.35814302,21.0797076 9.38811907,21.0345325 9.40542918,20.9471375 C9.44004941,20.7571484 9.48353579,20.5671594 9.52322239,20.3792813 C9.59077406,20.0600997 9.66043671,19.7409181 9.72925497,19.4145591 L10.5111655,19.4145591 L10.569851,19.1000217 L8.63111824,19.1000217 Z" id="Fill-18" fill="#E3E3E3"></path>
                        <path d="M7.79951504,19.1000217 C7.66103413,19.757806 7.52508641,20.404191 7.3874499,21.0611309 L7.78684911,21.0611309 C7.92490782,20.4054576 8.06212214,19.7569616 8.20018085,19.1000217 L7.79951504,19.1000217 Z" id="Fill-20" fill="#E3E3E3"></path>
                    </g>
                    <g id="Group-28" transform="translate(138.054010, 0.756608)">
                        <path d="M8.30589792,13.4248194 C12.9059915,11.4524255 19.3619017,9.66549554 27.9109046,11.4547806 L28.000987,9.28691366 C18.9809648,8.30189426 12.5085689,11.1745241 8.30589792,13.2105056 L8.30589792,13.4248194 Z" id="Fill-1" fill="#FAA929"></path>
                        <polygon id="Fill-3" fill="#005A9B" points="0.00011775486 15.0186315 4.3358517 15.0186315 4.3358517 16.3251216 1.6416205 16.3251216 1.6233685 17.5315202 4.30817931 17.5315202 4.30817931 18.7832543 1.61453688 18.7832543 1.62395727 19.9890641 4.28109569 19.9890641 4.28109569 21.2949655 0.00129530346 21.2949655"></polygon>
                        <polygon id="Fill-5" fill="#005A9B" points="5.4244365 14.4925028 7.0029404 14.4925028 7.00823937 21.295201 5.43032424 21.295201"></polygon>
                        <path d="M11.2704943,18.4379971 C11.2704943,17.9663889 11.0438162,17.5401163 10.5180407,17.5401163 C10.0193489,17.5401163 9.63841192,17.9846409 9.53832029,18.4379971 L11.2704943,18.4379971 Z M12.432146,20.7783749 C11.8963614,21.2317311 11.0803202,21.4584093 10.3543615,21.4584093 C8.69460672,21.4584093 7.94215316,20.2796831 7.94215316,19.1097886 C7.94215316,17.7308792 8.97604083,16.5609846 10.3996971,16.5609846 C12.1412915,16.5609846 12.6853189,17.793878 12.6853189,19.3629615 L9.52006828,19.3629615 C9.52006828,19.7174036 9.74674639,20.3155983 10.6181324,20.3155983 C11.1709914,20.3155983 11.4789204,20.1525079 11.9057817,19.8622421 L12.432146,20.7783749 Z" id="Fill-7" fill="#005A9B"></path>
                        <path d="M17.4750567,20.9868599 C17.0399525,21.2588736 16.3228254,21.4584681 15.7964612,21.4584681 C14.3457213,21.4584681 13.3024133,20.6241749 13.3024133,19.1180903 C13.3024133,17.5766792 14.3368897,16.5604547 15.8965528,16.5604547 C16.4405803,16.5604547 17.0941198,16.7329656 17.4473843,16.9596437 L16.9398609,17.9935314 C16.7037624,17.8940285 16.4500007,17.8121889 16.1956502,17.8121889 C15.4066926,17.8121889 14.8809172,18.2837971 14.8809172,19.0362507 C14.8809172,19.6897901 15.3890294,20.2073227 16.0602321,20.2073227 C16.3587407,20.2073227 16.6584268,20.0707271 16.9127773,19.9441406 L17.4750567,20.9868599 Z" id="Fill-9" fill="#005A9B"></path>
                        <path d="M18.0586498,16.7240162 L18.7716555,16.7240162 L18.7657677,15.1725959 L20.2895156,15.1725959 L20.2536004,16.7240162 L21.5506702,16.7240162 L21.5235866,17.8662384 L20.2265168,17.8662384 C20.2265168,18.5021146 20.1805924,19.1727285 20.1805924,19.5624971 C20.1805924,19.9616861 20.2800952,20.152449 20.6345374,20.152449 C20.8517951,20.152449 21.0337263,20.0435257 21.2144801,19.9346025 L21.5595018,21.0049942 C21.0967252,21.2864283 20.5344457,21.4583504 19.9992499,21.4583504 C18.7204321,21.4583504 18.6574333,20.6511408 18.6574333,19.5990011 C18.6574333,19.0367217 18.7027689,18.4744422 18.7027689,17.8662384 L18.0221458,17.8662384 L18.0586498,16.7240162 Z" id="Fill-11" fill="#005A9B"></path>
                        <path d="M22.3582919,16.7240162 L23.936207,16.7240162 L23.936207,17.3681353 L23.954459,17.3681353 C24.1899687,16.9783667 24.4990752,16.596841 25.1155219,16.596841 C25.2880328,16.596841 25.4687865,16.615093 25.6324658,16.651597 L25.4240397,18.2112601 C25.269192,18.1659245 25.0972699,18.1205889 24.8617602,18.1205889 C24.335396,18.1205889 23.9273754,18.5651135 23.9273754,18.6557847 L23.899703,21.2952599 L22.3217879,21.2952599 L22.3582919,16.7240162 Z" id="Fill-13" fill="#005A9B"></path>
                        <path d="M28.4915538,20.2612545 C29.2440073,20.2612545 29.4706854,19.6083038 29.4706854,19.0095203 C29.4706854,18.4107368 29.2440073,17.7577861 28.4915538,17.7577861 C27.7385114,17.7577861 27.5118333,18.4107368 27.5118333,19.0095203 C27.5118333,19.6083038 27.7385114,20.2612545 28.4915538,20.2612545 M28.4915538,16.560808 C30.1783921,16.560808 31.0491893,17.6306109 31.0491893,19.0095203 C31.0491893,20.3884297 30.1783921,21.4582326 28.4915538,21.4582326 C26.8041266,21.4582326 25.9333294,20.3884297 25.9333294,19.0095203 C25.9333294,17.6306109 26.8041266,16.560808 28.4915538,16.560808" id="Fill-15" fill="#005A9B"></path>
                        <path d="M31.9069157,16.7240162 L33.4854196,16.7240162 L33.4854196,17.2227081 C33.8481046,16.8688547 34.4009637,16.5609257 34.9632431,16.5609257 C35.9341319,16.5609257 36.4599074,17.0961216 36.4599074,18.3478557 C36.4599074,19.2816518 36.4516645,20.2884558 36.4422442,21.2952599 L34.8637403,21.2952599 C34.8731607,20.4156311 34.8819923,19.5265819 34.8819923,18.5833655 C34.8819923,18.2112601 34.7824894,17.9209944 34.3108812,17.9209944 C34.0565307,17.9209944 33.6938457,18.1388409 33.4854196,18.3384354 L33.476588,21.2952599 L31.8704117,21.2952599 L31.9069157,16.7240162 Z" id="Fill-17" fill="#005A9B"></path>
                        <polygon id="Fill-19" fill="#005A9B" points="12.9821789 7.3076311 14.9769462 0.733377268 16.7550446 0.733377268 14.7608661 7.3076311"></polygon>
                        <path d="M12.1869804,0.734495939 L10.586103,3.5211647 C10.17926,4.25242238 9.94139517,4.62099509 9.82599541,5.08200537 L9.80244444,5.08200537 C9.83011683,4.49735249 9.74886598,3.77963662 9.74121191,3.37338235 L9.56457962,0.734495939 L6.56948476,0.734495939 L6.5388685,0.912305777 C7.30780773,0.912305777 7.76410781,1.29854172 7.89010551,2.0892656 L8.47358084,7.30757222 L10.3170332,7.30757222 L14.0439745,0.734495939 L12.1869804,0.734495939 Z" id="Fill-21" fill="#005A9B"></path>
                        <path d="M25.8185184,3.42943366 C25.7985001,2.94369487 25.7820144,2.28426765 25.8149858,1.88507868 L25.788491,1.88507868 C25.6807453,2.21184841 25.2156136,3.19156885 25.0107201,3.673775 L24.3489378,5.11450571 L25.9086009,5.11450571 L25.8185184,3.42943366 Z M26.0228231,7.30768998 L25.9733661,6.32973586 L23.7519207,6.32855832 L23.2979757,7.30768998 L21.3662072,7.30768998 L24.8682367,0.745211631 L27.2392308,0.745211631 L27.8321266,7.30768998 L26.0228231,7.30768998 Z" id="Fill-23" fill="#005A9B"></path>
                        <g id="Group-27" transform="translate(15.896906, 0.262711)">
                            <mask id="mask-12" fill="white">
                                <use xlink:href="#path-11"></use>
                            </mask>
                            <g id="Clip-26"></g>
                            <path d="M2.72637827,7.23179697 C1.46993392,7.23179697 0.636818283,6.83319677 0.0415674656,6.47816587 L0.888813683,5.18345118 C1.42283197,5.48254852 1.84262805,5.82757026 2.8082179,5.82757026 C3.11850196,5.82757026 3.41701053,5.74749696 3.5871663,5.45310981 C3.8344515,5.02507089 3.53005519,4.79486014 2.83530152,4.40155891 L2.49263488,4.17782468 C1.46227985,3.47423939 1.01598893,2.80539178 1.50055018,1.63844112 C1.81142301,0.891875309 2.62981929,0.326063207 3.98046753,0.326063207 C4.9113197,0.326063207 5.78447199,0.728784828 6.29317298,1.12208606 L5.31875151,2.26489698 C4.82241478,1.86394168 4.41086154,1.66022577 3.9398421,1.66022577 C3.56479288,1.66022577 3.27864857,1.80506425 3.18032326,2.00053732 C2.99544813,2.36793248 3.24096701,2.61757278 3.78205059,2.95435168 L4.19007118,3.21400115 C5.44062779,4.00295871 5.73913636,4.82959783 5.42590844,5.60324726 C4.8860024,6.93446595 3.83033008,7.23179697 2.72637827,7.23179697" id="Fill-25" fill="#005A9B" mask="url(#mask-12)"></path>
                        </g>
                    </g>
                </g>
                <text id="Verified-by" font-family="Roboto-Medium, Roboto" font-size="9" font-weight="400" fill="#005A9B">
                    <tspan x="0.353038838" y="8.2590383">Verified by</tspan>
                </text>
                <g id="Group-14" transform="translate(14.534178, 11.259038)">
                    <polygon id="Fill-1" fill="#0066B2" points="11.5359198 0.640572379 10.0759928 9.61425064 12.412068 9.61425064 13.8724751 0.640572379"></polygon>
                    <g id="Group-13" transform="translate(0.000000, 0.167356)">
                        <g id="Group-4">
                            <mask id="mask-14" fill="white">
                                <use xlink:href="#path-13"></use>
                            </mask>
                            <g id="Clip-3"></g>
                            <path d="M8.1103962,0.473264072 L5.88281932,6.6451883 L5.61973481,5.31632347 L5.61973481,5.31680355 L4.83336176,1.28172086 C4.83336176,1.28172086 4.73878576,0.473264072 3.72533429,0.473264072 L0.043111294,0.473264072 L-9.6016245e-05,0.624969739 C-9.6016245e-05,0.624969739 1.12665462,0.859249377 2.4439975,1.6513834 L4.47378092,9.44694233 L6.90779273,9.44694233 L10.6250617,0.473264072 L8.1103962,0.473264072 Z" id="Fill-2" fill="#0066B2" mask="url(#mask-14)"></path>
                        </g>
                        <path d="M23.9160144,6.27264527 L25.1435821,2.9144771 L25.8344189,6.27264527 L23.9160144,6.27264527 Z M26.4868493,9.44694233 L28.6318522,9.44694233 L26.7614558,0.473264072 L24.883378,0.473264072 C24.0158713,0.473264072 23.8046355,1.14201722 23.8046355,1.14201722 L20.3206861,9.44694233 L22.755658,9.44694233 L23.2429405,8.11423685 L26.2127229,8.11423685 L26.4868493,9.44694233 Z" id="Fill-5" fill="#0066B2"></path>
                        <g id="Group-9" transform="translate(13.442274, 0.000000)">
                            <mask id="mask-16" fill="white">
                                <use xlink:href="#path-15"></use>
                            </mask>
                            <g id="Clip-8"></g>
                            <path d="M7.06089064,2.63127719 L7.39406701,0.703751068 C7.39406701,0.703751068 6.36525294,0.312484869 5.29275148,0.312484869 C4.13335532,0.312484869 1.3800895,0.819930725 1.3800895,3.28322749 C1.3800895,5.60201981 4.61151623,5.63082468 4.61151623,6.84831067 C4.61151623,8.06531658 1.71326587,7.84783978 0.756944068,7.0801899 L0.409365261,9.09461072 C0.409365261,9.09461072 1.45258176,9.6015765 3.04693151,9.6015765 C4.64080118,9.6015765 7.0464882,8.77583679 7.0464882,6.52953674 C7.0464882,4.19634198 3.78577652,3.97886519 3.78577652,2.96445356 C3.78577652,1.95004193 6.06088144,2.08062402 7.06089064,2.63127719" id="Fill-7" fill="#0066B2" mask="url(#mask-16)"></path>
                        </g>
                        <g id="Group-12">
                            <mask id="mask-18" fill="white">
                                <use xlink:href="#path-17"></use>
                            </mask>
                            <g id="Clip-11"></g>
                            <path d="M5.61973481,5.31670754 L4.83336176,1.28162484 C4.83336176,1.28162484 4.73878576,0.473168056 3.72533429,0.473168056 L0.043111294,0.473168056 L-9.6016245e-05,0.625353804 C-9.6016245e-05,0.625353804 1.76996346,0.99213586 3.46801075,2.36612833 C5.09020521,3.67963056 5.61973481,5.31670754 5.61973481,5.31670754" id="Fill-10" fill="#F9A533" mask="url(#mask-18)"></path>
                        </g>
                    </g>
                </g>
            </g>
        </g>
    </g>
</svg>